<svg width="131" height="132" viewBox="0 0 131 132" fill="none" xmlns="http://www.w3.org/2000/svg">
<path d="M56.8232 131.733C57.1356 131.896 57.1763 131.312 57.2578 131.23C56.6738 131.176 56.7961 131.882 56.8232 131.733Z" fill="#FDCC24"/>
<path d="M49.4044 131.04L49.5945 130.864L48.5759 131.067L49.4044 131.04Z" fill="#FDCC24"/>
<path d="M43.6691 128.786C43.6691 129.886 45.5025 129.519 46.2223 130.225V130.497L46.9285 129.954C45.782 129.758 44.6788 129.363 43.6691 128.786Z" fill="#FDCC24"/>
<path d="M41.5276 125.581C41.5276 125.988 40.8486 125.581 42.0437 126.002C42.037 125.957 42.037 125.911 42.0437 125.866C41.8648 125.784 41.6923 125.688 41.5276 125.581Z" fill="#FDCC24"/>
<path d="M42.1042 125.866C42.5931 126.11 41.9413 125.404 42.1042 125.866V125.866Z" fill="#FDCC24"/>
<path d="M39.2624 124.779H40.05C40.05 124.508 39.5204 124.128 39.8056 124.114C39.0858 123.951 39.0858 124.223 39.2624 124.779Z" fill="#FDCC24"/>
<path d="M38.033 124.983L38.4404 125.065C38.4269 124.956 38.3589 124.874 38.033 124.983Z" fill="#FDCC24"/>
<path d="M39.4109 125.241L38.5689 125.065C38.5689 125.255 38.4195 125.526 38.9356 125.173C38.7319 125.377 39.0306 125.228 39.4109 125.241Z" fill="#FDCC24"/>
<path d="M39.9873 125.608C40.2318 125.988 40.6392 126.368 39.8244 126.287C41.1281 126.884 41.2775 126.137 39.9873 125.608Z" fill="#FDCC24"/>
<path d="M42.5433 129.546L42.9236 130.062H43.5076C43.2495 130.035 42.6927 129.261 42.5433 129.546Z" fill="#FDCC24"/>
<path d="M34.858 121.819C34.695 121.955 34.7358 122.403 34.6271 122.647L35.1975 122.783C35.0617 122.498 34.7086 122.063 34.858 121.819Z" fill="#FDCC24"/>
<path d="M34.4326 122.647L33.5635 122.457C34.1338 122.919 34.3376 122.865 34.4326 122.647Z" fill="#FDCC24"/>
<path d="M37.2266 125.825L38.7612 125.907L36.9957 125.689L37.2266 125.825Z" fill="#FDCC24"/>
<path d="M31.8271 119.945L32.479 119.85L31.3926 119.918L31.8271 119.945Z" fill="#FDCC24"/>
<path d="M29.7066 118.709C30.2091 118.627 29.7881 117.921 30.2227 117.962C29.7465 117.703 29.2163 117.559 28.6745 117.541C29.1718 117.762 29.5484 118.188 29.7066 118.709Z" fill="#FDCC24"/>
<path d="M27.6025 117.392C27.8731 117.468 28.1506 117.518 28.4309 117.541C28.167 117.438 27.8857 117.388 27.6025 117.392Z" fill="#FDCC24"/>
<path d="M32.1647 121.547C32.2573 121.257 32.2069 120.939 32.0289 120.692L31.9202 121.344L32.1647 121.547Z" fill="#FDCC24"/>
<path d="M31.8044 121.357C31.5328 121.126 31.3563 120.963 31.2748 120.909L31.8044 121.357Z" fill="#FDCC24"/>
<path d="M35.042 124.195C34.4445 124.195 33.4259 123.869 33.942 124.861C34.458 124.779 34.1593 124.182 35.042 124.195Z" fill="#FDCC24"/>
<path d="M32.1835 122.416C32.3872 122.634 32.6045 122.837 32.8082 123.041C32.8897 122.919 32.8897 122.647 33.1885 122.647C32.849 122.579 32.5095 122.511 32.1835 122.416Z" fill="#FDCC24"/>
<path d="M31.5914 122.294L32.0396 122.416L31.8223 122.172L31.5914 122.294Z" fill="#FDCC24"/>
<path d="M28.2465 118.777C27.8268 118.675 27.4394 118.469 27.1193 118.179C27.4055 118.592 27.7381 118.97 28.1107 119.306C28.2872 119.211 28.6403 119.116 28.2465 118.777Z" fill="#FDCC24"/>
<path d="M30.0452 120.094H29.9637C29.9773 120.135 29.9908 120.176 30.0452 120.094Z" fill="#FDCC24"/>
<path d="M18.5192 114.961L18.492 115.083L18.5735 115.029L18.5192 114.961Z" fill="#FDCC24"/>
<path d="M28.2971 119.442C28.4558 119.704 28.7539 119.848 29.0576 119.809C28.7867 119.677 28.5353 119.507 28.3107 119.306C28.2292 119.347 28.1885 119.347 28.2971 119.442Z" fill="#FDCC24"/>
<path d="M26.2186 116.712C26.2772 116.945 26.3544 117.172 26.4495 117.391C26.4359 117.133 26.368 116.631 26.2186 116.712Z" fill="#FDCC24"/>
<path d="M29.9608 119.863C30.0151 119.7 29.988 119.755 29.9608 119.863V119.863Z" fill="#FDCC24"/>
<path d="M29.8459 119.863C29.6482 119.83 29.4462 119.83 29.2484 119.863C29.4382 119.969 29.6385 120.056 29.8459 120.121C29.835 120.036 29.835 119.949 29.8459 119.863Z" fill="#FDCC24"/>
<path d="M14.8116 116.427C15.2598 116.115 16.2919 116.563 16.4956 117.582C17.3919 117.935 18.2611 116.292 18.4919 115.096C18.3018 115.232 18.1253 115.395 17.324 114.961C17.324 115.395 18.1524 116.835 17.324 116.645C16.3055 115.993 16.8079 115.803 16.645 115.191C16.4684 116.006 14.9202 114.73 14.3363 115.558L15.3005 116.115C15.1104 116.237 14.7165 116.115 14.8116 116.427Z" fill="#FDCC24"/>
<path d="M25.9212 116.305L26.22 116.509C26.0051 116.088 25.8933 115.623 25.894 115.151C25.3101 114.906 25.0792 114.961 24.9162 115.056L26.057 116.414L25.9212 116.305Z" fill="#FDCC24"/>
<path d="M25.8863 117.609C25.2887 117.853 24.5282 117.432 24.4332 118.247C25.2344 118.953 25.3023 118.424 25.9406 118.655C24.5825 117.595 26.4974 118.763 25.8591 117.677C26.1257 117.824 26.38 117.992 26.6196 118.179C26.4471 117.931 26.2971 117.667 26.1715 117.392C26.1715 117.487 26.1715 117.541 26.1715 117.459C26.1096 117.506 26.0409 117.543 25.9678 117.568C25.6961 117.147 25.9678 117.405 26.1715 117.459L24.8134 116.522C25.1139 116.937 25.4757 117.303 25.8863 117.609Z" fill="#FDCC24"/>
<path d="M32.0366 125.35C32.0125 125.303 32.0125 125.247 32.0366 125.2C31.9416 125.2 31.8736 125.214 32.0366 125.35Z" fill="#FDCC24"/>
<path d="M31.6554 124.644C31.8853 124.564 32.1405 124.616 32.3208 124.779C32.5109 125.132 32.1578 125.01 32.0628 125.173C32.348 125.173 32.9998 125.35 32.5381 124.657H32.4023C31.9405 124.087 31.6689 122.987 31.8183 122.987C31.6405 123.52 31.5848 124.086 31.6554 124.644Z" fill="#FDCC24"/>
<path d="M28.2759 121.248L26.9993 120.542L27.2573 121.398L27.4203 121.153C27.9499 121.764 28.0586 121.371 28.2759 121.248Z" fill="#FDCC24"/>
<path d="M18.6143 105.757L19.1982 105.472H18.0167L18.6143 105.757Z" fill="#FDCC24"/>
<path d="M17.3648 103.78L17.813 103.482L17.2562 103.346L17.3648 103.78Z" fill="#FDCC24"/>
<path d="M76.251 2.26807L76.7263 2.173C76.5649 2.18719 76.4055 2.21908 76.251 2.26807Z" fill="#FDCC24"/>
<path d="M72.1064 1.91495L71.9978 2.17297C72.1607 2.03717 72.2286 1.92853 72.1064 1.91495Z" fill="#FDCC24"/>
<path d="M10.3028 44.5095C11.009 44.2787 12.0004 44.2243 11.4572 43.9391L10.8732 43.749C10.7809 44.063 10.5784 44.333 10.3028 44.5095Z" fill="#FDCC24"/>
<path d="M40.5164 8.82745L40.2855 8.7188L40.0818 9.39783L40.5164 8.82745Z" fill="#FDCC24"/>
<path d="M40.1369 6.38293H41.074C40.7634 6.33643 40.4475 6.33643 40.1369 6.38293Z" fill="#FDCC24"/>
<path d="M98.1426 6.95337L98.9031 6.66817C98.129 6.28792 98.3327 6.7225 98.1426 6.95337Z" fill="#FDCC24"/>
<path d="M8.1028 80.0675C8.16788 79.6445 8.16788 79.214 8.10279 78.7909C7.8991 79.4564 7.58674 80.0675 8.1028 80.0675Z" fill="#FDCC24"/>
<path d="M73.8351 8.33862C74.0931 8.25714 74.2018 8.1485 74.2153 8.02627C73.9437 8.09417 73.7943 8.18924 73.8351 8.33862Z" fill="#FDCC24"/>
<path d="M7.6954 76.7277C7.66638 76.8212 7.64369 76.9164 7.62751 77.0129C7.83672 77.3459 7.98395 77.714 8.06208 78.0994C8.26873 77.6122 8.1176 77.0468 7.6954 76.7277Z" fill="#FDCC24"/>
<path d="M128.286 95.8605L128.163 95.9827C128.231 96.0234 128.258 95.9555 128.286 95.8605Z" fill="#FDCC24"/>
<path d="M113.483 119.714C113.591 119.578 113.781 119.402 113.958 119.225C113.769 119.355 113.608 119.521 113.483 119.714Z" fill="#FDCC24"/>
<path d="M13.2771 95.012C13.5216 95.2972 13.3586 95.012 13.2771 95.012V95.012Z" fill="#FDCC24"/>
<path d="M12.3943 99.2883C12.2921 99.2352 12.1705 99.2352 12.0684 99.2883C12.1736 99.2499 12.289 99.2499 12.3943 99.2883Z" fill="#FDCC24"/>
<path d="M3.36328 71.7027C3.28181 71.7027 3.26822 71.7842 3.36328 71.7027V71.7027Z" fill="#FDCC24"/>
<path d="M13.3721 95.823C13.3426 95.6574 13.3018 95.4941 13.2498 95.3341C13.2698 95.5016 13.3109 95.6658 13.3721 95.823Z" fill="#FDCC24"/>
<path d="M13.5622 95.6802L13.698 95.9926C13.7523 95.979 13.8338 95.8975 13.5622 95.6802Z" fill="#FDCC24"/>
<path d="M12.9648 94.5697C13.0783 94.7405 13.1739 94.9225 13.25 95.1129C13.25 95.0314 13.25 94.9771 13.25 94.9907C13.1476 94.8555 13.0524 94.715 12.9648 94.5697Z" fill="#FDCC24"/>
<path d="M124.51 44.2177V44.3264C124.918 44.598 124.809 44.435 124.51 44.2177Z" fill="#FDCC24"/>
<path d="M13.2635 25.0746C13.2635 26.0388 12.9104 26.229 12.4215 26.4327L13.929 27.4241C13.6845 26.6092 13.4672 25.8487 13.2635 25.0746Z" fill="#FDCC24"/>
<path d="M85.9008 5.74045L84.7684 4.48607C86.6444 3.72067 87.7261 4.61365 86.712 3.01907C85.9346 5.65541 81.4052 1.67964 80.7629 4.48607L79.9686 3.69942C80.2221 3.69942 80.2897 3.69942 80.5263 3.69942C79.0052 1.97728 78.9715 5.46407 76.8588 4.63489C76.1321 4.31598 75.6251 3.80573 76.1828 3.5506L74.4927 4.01834C74.0026 3.89076 74.1547 3.40176 74.6448 3.52931C73.766 3.52931 72.9548 3.52931 72.0252 3.52931C71.4923 4.0276 70.9269 4.46855 70.3351 4.84749C69.6929 4.37976 70.6732 4.57112 70.5211 4.18842C70.0309 4.37976 69.5577 4.61365 69.0676 4.82626C68.5099 4.08212 69.7098 3.338 70.7577 3.52934C69.4901 0.552811 69.5408 4.20969 66.6508 2.46631L68.0197 2.12611C67.1409 0.446503 66.0424 1.04181 64.4368 1.52588e-05C64.8593 0.510284 67.631 2.44504 66.0424 3.23167C65.4149 2.96626 64.7246 3.09261 64.1833 3.57185C64.1833 2.55133 63.3213 2.80647 62.2904 2.97655V1.65837C61.1749 2.16862 61.3101 2.84897 60.7017 3.52931C59.451 3.52931 59.113 2.50879 58.7243 1.67961C56.7131 1.67961 60.2623 3.12537 57.93 3.80571C56.2721 3.69102 54.6344 4.3076 53.2992 5.5491C52.0992 5.35776 53.2992 4.69865 52.9104 4.401L52.0654 5.69792C51.8119 5.69792 51.8457 5.37901 51.8626 5.20891C51.0852 5.868 51.9978 6.5696 50.764 7.33499C50.764 8.88705 47.6712 5.95303 46.4036 8.20669C45.9135 7.97282 46.4036 7.33499 46.1839 6.86726C44.9608 7.79716 43.8931 9.01753 43.0404 10.4603C42.4827 10.4603 41.8911 10.2903 41.3503 10.2477C42.7024 10.7155 41.6207 12.5014 40.7081 13.9896C41.2151 14.266 41.6545 14.5212 41.9249 14.6275L40.2348 16.1795C39.9475 16.1795 39.9982 15.5417 40.2348 14.8826L39.9813 15.3291C39.1701 15.1802 39.2884 14.2873 39.5588 13.3518L40.4884 13.8195C40.8005 12.9491 40.8427 11.9632 40.6067 11.0556C40.4739 11.3241 40.2874 11.5441 40.0658 11.6935C40.0658 11.4383 40.1672 11.2045 40.0658 11.0982C39.9644 10.9919 39.8292 11.3746 39.6095 11.8423L38.7476 10.6304V11.247C37.8011 11.247 36.8716 11.5446 35.9251 11.6722C35.2491 12.8415 34.7252 14.181 34.0661 15.4992C33.3512 16.9346 32.4417 18.2011 31.3788 19.2411C31.6324 17.8166 30.8549 17.5402 30.4155 16.3496C31.6492 17.0725 32.3253 14.4574 33.8971 13.8621C33.0858 14.1597 33.052 13.5006 33.1703 13.1817C32.4436 14.096 31.7 14.9464 31.0239 15.9031C30.6859 14.9039 30.1789 15.5417 29.3338 15.6055C30.6183 17.1362 27.9649 18.093 27.2381 19.4112C26.8832 18.8371 26.8325 18.0292 28.1508 17.2851C26.1396 16.9024 27.3734 20.7081 25.5312 20.5593C25.8185 20.3041 26.0213 20.2829 25.9875 19.8789C25.5481 20.9419 23.689 21.8562 23.8073 21.027L24.0946 20.7719C21.9989 22.0688 18.2807 25.9383 19.0244 27.6391C18.6477 26.9045 18.3359 26.1203 18.0948 25.3004C18.0094 27.9442 18.0433 30.5918 18.1962 33.2307C17.6385 31.785 14.5794 30.2542 15.5597 27.9793C14.7915 28.3724 14.1821 29.1391 13.8696 30.1054C14.2752 29.9353 15.7963 30.892 15.5597 31.4448C13.5823 31.4448 14.3259 31.6149 12.1795 32.2315C12.771 31.9338 13.7344 34.1874 13.1091 34.9316C12.9908 34.5489 11.6387 33.3796 11.7063 32.9118C11.7063 34.145 11.7063 35.3993 11.7063 36.6112C11.8077 35.8033 10.5401 35.208 9.77961 35.293C10.219 35.293 8.52896 37.2278 8.32615 38.0144L9.25569 37.3553C7.56562 39.8003 9.94863 41.8626 8.63037 44.3502C8.44444 43.7974 6.94028 41.9689 6.06145 43.2446C6.34875 43.8824 7.05859 45.3707 7.75153 46.9015C8.31104 48.2729 8.62268 49.7831 8.66415 51.3237L8.02193 51.4938V53.6199C7.26315 52.295 6.6227 50.869 6.11214 49.3677C5.55994 47.7828 5.16269 46.1193 4.9291 44.414C4.08405 45.2644 4.18546 44.414 3.61084 46.051C2.9179 46.3912 3.20522 44.6691 3.42493 44.1588C2.79959 45.4345 2.17427 46.7314 1.63344 48.0921C2.732 48.4535 1.73485 51.7915 2.732 52.0041C2.73553 50.3485 2.81454 48.6945 2.96861 47.0503C4.06716 47.4968 5.03051 51.0473 4.26997 53.7049C3.66153 54.2577 2.44467 52.4293 2.07286 52.323C2.32808 53.4049 2.26816 54.5659 1.90385 55.5972C1.76863 55.1082 1.70103 54.6404 1.58272 54.1302C0.771469 55.7035 2.57986 57.2768 1.17711 58.9989C1.0081 59.658 -0.512985 60.8699 0.179962 61.125C2.24744 60.3307 4.47019 60.466 6.46704 61.5077C6.34875 61.6778 4.92908 64.5267 4.33756 65.2921C3.2897 66.3339 1.95454 63.5062 1.05881 64.3779C1.36301 64.3779 1.73483 65.1008 1.85313 65.3559C1.56583 66.0788 0.906708 65.0157 1.0081 66.6103C2.10664 66.8867 1.0081 69.7994 1.97145 67.3544C2.32635 68.8639 1.78552 68.9702 1.97145 70.7561C2.32635 70.4372 2.96858 70.7561 3.66152 71.3727C4.29017 71.9147 4.80136 72.6455 5.14879 73.4988C4.84457 73.4988 4.50656 73.839 4.33754 74.0303C4.33754 75.5186 4.48965 76.6454 4.50654 77.7935C4.50536 79.0149 4.63612 80.2308 4.89528 81.4078C4.67558 81.748 4.64176 83.1938 4.03333 82.7898C4.32064 83.13 4.76006 83.3426 5.01358 84.1717C4.48965 86.1703 4.37135 82.3646 3.56011 84.0442C4.23615 83.8954 5.01358 85.8726 5.72341 86.8719C6.60224 86.064 5.18258 84.0867 4.48965 83.0237C5.84171 82.5347 7.8698 84.0017 9.15427 86.2978C10.1345 88.1901 8.57964 87.616 8.88384 87.8924C9.16451 89.2531 9.96162 90.3513 11.0134 90.8264C11.9096 91.2046 12.5191 92.2524 12.5344 93.4415C12.2302 95.1849 10.9627 94.5683 10.4894 95.2274C9.47539 93.7817 9.98239 92.3572 9.52608 91.2516L9.6613 92.8887C9.07447 92.4087 8.68037 91.634 8.57967 90.7626C8.19093 92.2934 10.9289 97.396 11.7401 100.691C12.2302 101.01 12.9739 101.627 13.0584 100.968L12.5006 100.181C12.7203 98.8843 14.1907 101.138 13.9203 99.7985C15.1738 100.45 16.2077 101.63 16.8441 103.136L16.185 104.199C16.4047 103.944 16.0667 102.732 15.5766 102.52C16.3033 102.839 15.847 105.964 17.2666 105.666V104.029C18.3145 104.752 20.0215 105.156 20.6468 106.708C21.0524 105.284 20.3595 106.496 20.6468 104.582C20.3257 105.581 19.8187 104.752 19.3285 103.987C18.8384 103.221 18.4328 102.456 18.1962 103.71C18.7539 101.691 17.6385 101.584 17.9427 99.4583C17.6723 99.7347 17.6385 100.373 17.1822 99.1181C17.0532 99.14 16.9224 99.14 16.7934 99.1181C16.8222 99.4446 16.7814 99.7748 16.6751 100.075C15.7118 100.075 14.7315 98.1614 14.1062 97.7574C13.9034 96.9283 14.5794 97.7574 14.7146 97.1834L13.7175 96.5881C14.3259 95.9928 13.9203 93.9305 15.0865 95.2912C14.8668 94.8022 14.647 94.2919 14.4442 93.7816C14.4675 92.6428 14.1265 91.5399 13.4978 90.7201C13.3626 89.9122 12.0443 89.3169 12.8218 89.6358C12.3823 88.9129 11.9091 88.19 11.5204 87.4034L11.6894 87.2971C11.3514 86.0427 10.6078 84.9159 10.1345 83.619C9.50718 82.3024 9.33037 80.7225 9.64442 79.2392C9.04179 78.3535 8.69616 77.2365 8.66415 76.0714L9.25568 75.6249C8.81626 74.5619 9.50919 72.2232 8.78246 71.8617C10.3542 70.4798 8.90076 66.6103 9.30637 64.6756L8.46133 64.548C8.52994 63.1271 8.47326 61.701 8.29232 60.2958L7.53181 60.2958C7.4249 59.3697 7.58692 58.4262 7.98812 57.6382C8.45316 56.6802 8.8329 55.6606 9.12045 54.5979C9.35708 54.853 9.12046 55.3633 8.90076 55.7035C9.79625 54.7492 10.2635 53.3036 10.1514 51.834C10.2697 50.3883 10.3542 48.8362 11.3852 48.1346C11.3422 47.5824 11.5786 47.0554 11.9767 46.8164C11.9691 46.8727 11.9691 46.9302 11.9767 46.9865C12.0201 46.9193 12.0596 46.8482 12.095 46.7739L12.8048 46.3062C12.572 46.3741 12.3494 46.4889 12.1457 46.6463C12.3959 46.0711 12.5835 45.4561 12.7034 44.8179L13.5147 45.1156V44.9667C14.0893 44.6266 13.5147 44.2439 12.788 44.1163C12.8292 43.7354 12.8292 43.3492 12.788 42.9682C14.0893 43.4572 13.3457 41.076 14.8329 41.5225C14.5118 40.587 16.3033 38.3121 15.4921 36.8026C15.6442 36.9514 15.8301 36.8026 15.6104 37.164C16.2266 36.8134 16.6941 36.1479 16.8948 35.3356L17.8413 36.0159V33.4646C18.9567 33.2945 19.5314 33.4646 19.3455 34.8253C20.0891 31.9126 20.2919 32.9756 20.9341 30.3392L21.2721 31.0621C21.7454 30.5093 22.0496 28.8297 22.6918 29.0848C24.2336 28.6473 25.6739 27.7668 26.9001 26.5123C28.6507 24.9838 30.61 23.8739 32.6802 23.2381C31.1253 21.4735 34.6069 23.2381 34.0491 21.431C34.4548 21.8349 35.0463 21.8562 34.6745 22.6428C36.1955 21.112 37.5307 21.9412 38.2236 19.8577C38.6124 20.2829 38.1222 20.8356 38.4095 21.0695C38.5109 20.8782 38.7983 20.3041 39.0856 20.538C39.3729 20.7719 38.9842 21.112 38.7983 21.4947C40.4883 20.4742 40.1672 18.6883 39.8123 17.0512C40.9785 17.3701 41.401 17.0512 41.7897 15.6905C42.2629 16.0732 42.9559 16.3709 41.7897 17.0725C42.4319 16.7961 45.9304 16.1795 45.6769 14.9464C45.9642 15.1803 46.6233 14.6913 46.7754 14.4787C47.8211 14.2401 48.854 13.9206 49.8683 13.5219L49.412 13.5219C49.6993 11.7785 50.595 12.8203 51.7443 12.2888V12.4589C54.6681 12.9053 52.8597 11.6084 55.7667 12.31L55.4963 11.332C55.4963 9.05714 58.0821 12.1825 59.5693 11.0982L58.944 10.6092C59.7722 9.71622 61.6143 13.3093 62.4594 13.4794C62.6453 13.6495 62.1721 13.8196 61.9354 13.9896C64.217 15.0527 62.1383 12.6077 63.8114 12.2037C64.1495 12.9054 63.4903 14.0534 64.6058 14.1385C64.8931 14.4149 65.6705 13.777 66.6001 13.288C67.449 12.6657 68.489 12.6178 69.3718 13.1605C69.0507 12.6077 68.7127 12.0549 69.507 11.651C70.7577 11.651 72.6337 13.9471 73.8336 12.4164C73.9414 12.5339 74.0031 12.7047 74.0026 12.8841C74.9491 12.5439 77.0279 12.5864 77.7039 11.821C77.8898 13.6495 79.394 13.4794 80.7122 13.4369C82.0305 13.3943 83.3826 13.2243 83.0276 14.8188L85.7656 15.6267L85.6135 15.9244C86.6244 16.6202 87.8475 16.6202 88.8584 15.9244C89.1964 16.3071 88.8584 16.4559 88.7401 16.6047C90.1296 18.1271 92.0175 18.713 93.8104 18.178L93.6413 19.2411C94.4357 19.0285 96.4131 22.8342 99.0496 23.4933C98.93 23.6298 98.7713 23.699 98.6102 23.6846C99.3558 23.974 100.038 24.4761 100.604 25.1516C101.179 25.8745 101.703 26.7036 102.21 27.4053C103.224 28.8085 104.086 29.914 105.489 28.851C106.148 29.1061 106.807 29.4038 107.449 29.7227C105.759 27.3627 108.599 28.7872 108.159 27.4265C109.038 28.1494 109.477 30.5093 108.446 29.5526V29.255C107.061 30.3392 110.373 32.4653 109.511 33.5071C112.664 37.8897 115.269 42.8507 117.235 48.2196L118.046 46.9015L118.993 48.4323C118.993 49.0701 118.418 49.6016 117.911 48.4323C117.607 49.474 119.28 50.1969 119.601 50.0906C120.091 52.8545 117.911 49.9205 118.198 50.7072L118.671 51.6639V51.3663C119.432 51.919 120.007 51.7064 120.463 53.301C120.547 54.4278 119.922 54.1939 119.99 54.5979C119.99 54.5979 119.99 54.7893 120.159 55.2145C120.345 56.0011 120.598 56.7453 120.733 57.5532C120.953 57.1067 121.207 56.6602 121.409 56.2137C122.153 57.0429 121.933 58.4674 122.711 56.9153C122.085 58.1059 122.575 60.3171 122.914 62.5495C123.336 64.1166 123.542 65.7635 123.522 67.4182C124.303 68.8575 124.661 70.5939 124.536 72.3295C124.688 71.8405 125.82 71.4578 125.736 73.1586C123.437 72.6696 124.84 76.284 123.15 77.5384C124.266 76.4115 123.15 82.1732 124.84 80.4724C124.587 81.8331 124.012 80.4724 123.387 81.4504C123.978 84.8096 122.085 88.4027 121.477 92.2296C121.747 92.3997 122.322 91.8895 122.575 92.8887C121.967 93.4202 121.274 93.8667 120.632 94.3344C120.632 95.1211 122.068 95.7377 120.632 96.6519C120.919 96.6519 121.359 96.4393 121.308 96.9921C119.516 100.202 118.435 103.923 116.829 107.389C115.331 111.009 112.848 113.832 109.832 115.34C110.829 115.149 110.475 115.68 110.018 116.276C110.407 116.021 110.508 116.956 110.829 117.275C109.961 117.693 109.068 118.027 108.159 118.274C108.311 119.018 107.787 119.55 107.263 119.975C106.739 120.4 106.232 120.74 106.368 121.421L106.942 120.74C106.807 121.74 107.449 122.314 108.294 122.867C109.139 123.419 110.069 123.526 110.491 124.44C110.694 123.185 111.725 123.015 112.824 122.59C114.064 122.362 115.02 121.098 115.139 119.529C115.748 119.358 115.139 120.379 115.646 120.464C115.646 119.316 116.001 118.614 117.083 117.615V117.891C117.609 117.084 118.173 116.317 118.773 115.595C119.263 114.894 119.719 114.256 120.226 113.639C121.453 112.192 122.584 110.62 123.606 108.941L122.761 108.771C123.099 108.238 123.519 107.797 123.995 107.474C123.691 106.517 123.387 107.219 123.066 107.899C122.744 108.579 122.322 109.217 121.984 108.303C123.032 108.303 123.674 106.453 124.485 104.774C125.297 103.094 125.787 101.372 126.834 101.351C127.392 99.756 125.804 101.351 126.361 99.7985L126.953 99.5859L126.463 98.8843C126.711 98.0966 127.349 97.6169 128.018 97.7149C127.928 98.0725 127.882 98.4454 127.882 98.8205C128.66 97.6511 128.66 94.7384 128.913 94.2919C128.694 94.8022 128.508 95.3124 128.254 95.8227C128.93 91.1241 130.35 85.4899 129.674 80.8125L129.285 81.1102C128.66 77.6234 129.927 78.3888 129.522 74.5831L129.623 74.7107C129.2 73.8439 129 72.8344 129.048 71.8192C129.556 72.7547 129.775 69.9695 130.35 71.1814C129.336 67.482 129.657 69.3529 128.034 67.1206L128.66 66.5678C127.929 66.0301 127.427 65.1102 127.291 64.059C128.018 65.4409 128.085 62.6558 128.981 64.2078C129.281 62.613 129.022 60.9331 128.271 59.5942C127.815 58.4886 127.392 57.6807 128.136 56.4263C126.057 55.3208 128.018 60.0619 127.392 59.2115C127.206 59.7218 126.818 59.4666 126.48 58.9351C126.091 58.3949 125.822 57.7347 125.702 57.0216C125.449 55.8523 127.392 54.1089 126.344 51.1111C126.344 51.4088 126.564 51.3663 126.649 51.6639C126.649 50.3245 125.432 49.7504 125.55 48.0708C124.316 47.8795 124.942 46.2849 123.657 46.8377L124.891 49.2827C123.961 47.9645 122.17 47.433 121.747 44.7116C122.235 44.8725 122.691 45.1624 123.083 45.562C123.083 44.6478 122.254 44.414 122.288 43.436C123.573 42.8194 123.978 46.3274 125.432 47.433C125.635 46.3062 123.387 44.903 124.992 44.8817C122.863 44.8817 123.961 41.9052 121.849 40.9484L122.592 40.5445C122.148 40.2888 121.756 39.911 121.443 39.4389L122.829 39.7153C121.291 38.8436 122.001 36.2285 120.75 35.208C122.44 38.1208 120.345 36.5687 120.547 38.2271C119.145 36.8026 119.229 35.9947 119.398 34.9529C119.731 33.4798 119.3 31.9015 118.316 30.9984C118.756 31.4236 119.246 33.2945 118.418 32.8055C118.013 31.9311 117.754 30.9615 117.657 29.9566C115.832 27.5966 117.302 31.0409 116.221 30.3818C116.373 28.7234 115.055 29.5526 114.074 28.8085L114.649 28.1069C112.959 24.9815 112.959 28.8723 111.489 25.9808H113.077L111.86 25.0878L112.705 24.4713C111.117 23.8334 110.931 23.2381 109.951 21.8349C109.832 22.6641 108.852 23.1106 107.855 22.1326C107.466 20.9632 108.717 21.7286 107.213 20.4317C107.855 20.2191 108.599 19.964 108.751 21.3459C108.987 21.1546 109.393 21.1758 109.629 20.9845C109.241 19.6451 107.821 18.8584 107.263 18.4757C107.459 18.6732 107.62 18.9193 107.737 19.1986L104.914 18.3907C104.745 17.7529 105.151 17.7529 105.556 17.7529C105.066 17.4339 104.559 17.5615 103.866 17.0938C104.39 16.541 104.745 15.7756 105.861 16.2646C105.016 15.9031 104.171 15.5842 103.292 15.2653C103.292 14.8401 102.599 13.5219 103.004 13.4794C101.957 12.14 99.3369 12.629 97.9341 11.0344C97.6755 11.1358 97.3984 11.1358 97.1398 11.0344C95.6525 9.84379 94.4864 8.14291 92.2048 8.18544C91.9851 7.52637 91.7484 6.90979 91.4949 6.27197C89.8049 5.88928 92.4921 8.71696 89.8049 8.07915C87.8782 7.73895 89.4499 6.56961 88.9091 5.95306C87.7937 6.29323 85.867 7.18617 84.4135 5.44279C84.9543 5.25145 85.3599 5.67667 85.9008 5.74045ZM66.0085 3.23167C66.3804 2.97653 67.1578 2.35997 67.4451 2.95529C66.9888 4.12463 66.6677 3.52931 66.0085 3.23167ZM37.3955 13.2668C37.5476 12.8203 38.0039 12.7565 38.5616 12.8841C38.216 13.1667 37.8069 13.3009 37.3955 13.2668ZM13.3795 92.7824C13.2612 92.1233 13.2443 91.7406 13.3795 92.7824V92.7824ZM13.7344 94.7809C13.7872 94.834 13.8575 94.8504 13.922 94.8248C13.9864 94.7992 14.0365 94.7349 14.0555 94.6534C13.8358 94.6534 13.6499 94.2707 13.5147 93.7817C13.464 94.0368 13.4302 94.3557 13.7344 94.7809ZM120.209 54.5341V54.0664C120.885 54.8105 120.615 54.6617 120.328 54.5341H120.209Z" fill="#FDCC24"/>
<path d="M40.1377 6.66818C40.2471 6.73523 40.3326 6.83501 40.3821 6.95337C40.4636 6.80399 40.4229 6.68176 40.1377 6.66818Z" fill="#FDCC24"/>
<path d="M97.8502 7.00769C97.8885 6.98328 97.9209 6.95084 97.9453 6.91264L97.8502 7.00769Z" fill="#FDCC24"/>
<path d="M0.497726 63.1238C0.563805 62.9022 0.685341 62.7012 0.85083 62.5398C0.687859 62.5262 0.552048 62.6485 0.497726 63.1238Z" fill="#FDCC24"/>
<path d="M15.7488 99.4997L15.1241 98.9565C15.2972 99.1565 15.3935 99.4117 15.3957 99.6763C15.5043 99.5676 15.5858 99.3096 15.7488 99.4997Z" fill="#FDCC24"/>
<path d="M17.5278 118.682C17.6772 118.682 17.7315 118.872 17.8809 118.899L18.071 118.654C17.6636 118.301 17.229 118.179 17.5278 118.682Z" fill="#FDCC24"/>
<path d="M14.4857 102.89C14.1054 103.284 14.5943 103.583 15.0425 103.977C15.0425 103.977 15.0425 103.977 15.0425 103.895C15.6808 103.542 15.1104 103.216 14.4857 102.89Z" fill="#FDCC24"/>
<path d="M15.1105 104.414C15.2536 104.535 15.3773 104.677 15.4771 104.835C15.7759 104.699 15.4092 104.618 15.1105 104.414Z" fill="#FDCC24"/>
<path d="M12.2451 93.6914C12.2451 94.0037 12.9377 93.4741 12.8155 93.6914C13.576 93.6235 11.1722 92.6185 12.2451 93.6914Z" fill="#FDCC24"/>
<path d="M13.3857 104.671L13.7795 104.074L13.1277 104.155L13.3857 104.671Z" fill="#FDCC24"/>
<path d="M10.9411 98.7776L11.335 99.7011C11.4164 99.6196 11.5387 99.7011 11.6609 99.7826C11.3485 99.2665 11.0362 98.6554 10.9411 98.7776Z" fill="#FDCC24"/>
<path d="M11.6611 100.137C11.7819 100.377 11.9709 100.575 12.2043 100.708C12.0457 100.497 11.8635 100.306 11.6611 100.137Z" fill="#FDCC24"/>
<path d="M12.3943 103.231L12.3264 102.905L11.9597 102.321L12.3943 103.231Z" fill="#FDCC24"/>
<path d="M6.28296 84.1892C6.09283 83.8904 5.9027 83.578 5.72615 83.2657C5.4817 83.2657 5.42738 83.5644 5.72615 83.904C6.02493 84.2435 6.13358 84.42 6.28296 84.1892Z" fill="#FDCC24"/>
<path d="M5.84841 89.8684C5.84841 89.5289 5.97063 89.4474 6.10645 89.2165L5.33235 89.5289L5.84841 89.8684Z" fill="#FDCC24"/>
<path d="M4.39546 85.6616C4.13742 85.6616 3.1732 84.3986 3.74358 85.6616C4.0152 85.7159 4.59917 86.6801 4.39546 85.6616Z" fill="#FDCC24"/>
<path d="M2.90156 60.9315L2.88797 61.2031L4.27319 61.271L2.90156 60.9315Z" fill="#FDCC24"/>
<path d="M4.88424 37.9992C3.83854 39.0041 5.41389 38.7325 4.40892 39.5881C4.51757 40.0363 5.22375 38.8955 5.29166 39.3301C5.42747 38.4338 5.86204 38.1893 4.88424 37.9992Z" fill="#FDCC24"/>
<path d="M5.29172 39.8353C5.27707 39.9888 5.27707 40.1434 5.29172 40.297C5.3204 40.1444 5.3204 39.9878 5.29172 39.8353Z" fill="#FDCC24"/>
<path d="M104.487 120.624C104.266 120.643 104.043 120.643 103.822 120.624L104.378 120.841L104.487 120.624Z" fill="#FDCC24"/>
<path d="M103.717 122.063L103.228 121.316C103.228 121.615 103.228 121.9 103.228 122.199C103.242 122.158 103.527 121.982 103.717 122.063Z" fill="#FDCC24"/>
<path d="M63.0076 0.366714V0.584015C63.157 0.81488 63.3607 0.81488 63.7817 0.842041L63.0076 0.366714Z" fill="#FDCC24"/>
<path d="M77.6767 1.54823L77.473 1.49391L77.7446 2.34949L77.6767 1.54823Z" fill="#FDCC24"/>
<path d="M90.1121 2.94708C89.7182 2.7841 89.2157 2.77053 88.8219 2.63471C89.7725 2.77053 89.8948 3.93845 90.1121 2.94708Z" fill="#FDCC24"/>
</svg>
