<svg width="232" height="200" viewBox="0 0 232 200" fill="none" xmlns="http://www.w3.org/2000/svg">
<path fill-rule="evenodd" clip-rule="evenodd" d="M38.9432 0.64209H0.680023V162.142C0.680023 183 17.5885 199.908 38.4463 199.908H193.487C214.344 199.908 231.253 183 231.253 162.142V0.64209C231.253 0.64209 211.86 0.64209 191.002 0.64209H38.9432ZM73.231 44.8677C66.0954 44.8677 60.3109 50.6522 60.3109 57.7877C60.3109 64.9233 66.0954 70.7078 73.231 70.7078H157.708C164.844 70.7078 170.628 64.9233 170.628 57.7877C170.628 50.6522 164.844 44.8677 157.708 44.8677H73.231Z" fill="url(#paint0_linear_66_67024)"/>
<path fill-rule="evenodd" clip-rule="evenodd" d="M19.0661 162.143C19.0661 161.319 19.7335 160.652 20.5569 160.652H71.2431C72.0665 160.652 72.7339 161.319 72.7339 162.143C72.7339 162.966 72.0665 163.633 71.2431 163.633H20.5569C19.7335 163.633 19.0661 162.966 19.0661 162.143Z" fill="black"/>
<path fill-rule="evenodd" clip-rule="evenodd" d="M19.9543 118.895L29.4415 109.408C30.0237 108.826 30.9676 108.826 31.5497 109.408L41.037 118.895C41.6191 119.478 41.6191 120.421 41.037 121.004C40.4548 121.586 39.5109 121.586 38.9287 121.004L31.9864 114.061L31.9864 150.216C31.9864 151.04 31.3189 151.707 30.4956 151.707C29.6723 151.707 29.0048 151.04 29.0048 150.216L29.0048 114.061L22.0625 121.004C21.4803 121.586 20.5364 121.586 19.9543 121.004C19.3721 120.421 19.3721 119.478 19.9543 118.895Z" fill="black"/>
<path fill-rule="evenodd" clip-rule="evenodd" d="M50.7634 118.895L60.2507 109.408C60.8328 108.826 61.7767 108.826 62.3589 109.408L71.8461 118.895C72.4283 119.478 72.4283 120.421 71.8461 121.004C71.264 121.586 70.3201 121.586 69.7379 121.004L62.7956 114.061V150.216C62.7956 151.04 62.1281 151.707 61.3048 151.707C60.4815 151.707 59.814 151.04 59.814 150.216V114.061L52.8717 121.004C52.2895 121.586 51.3456 121.586 50.7634 121.004C50.1813 120.421 50.1813 119.478 50.7634 118.895Z" fill="black"/>
<path d="M207.899 132.101C207.477 134.616 206.641 136.724 205.391 138.426C204.142 140.127 202.625 141.411 200.84 142.277C199.056 143.143 197.147 143.576 195.114 143.576C192.946 143.576 191.064 143.105 189.467 142.164C187.871 141.223 186.708 139.845 185.978 138.03C185.247 136.216 185.1 133.999 185.537 131.378C185.944 128.864 186.772 126.748 188.022 125.031C189.272 123.315 190.796 122.016 192.596 121.135C194.395 120.254 196.319 119.814 198.367 119.814C200.52 119.814 202.391 120.288 203.98 121.237C205.576 122.185 206.735 123.574 207.458 125.404C208.189 127.234 208.335 129.466 207.899 132.101ZM201.574 131.378C201.785 130.053 201.8 128.939 201.619 128.035C201.439 127.124 201.058 126.439 200.479 125.98C199.899 125.513 199.12 125.28 198.141 125.28C197.027 125.28 196.04 125.551 195.182 126.093C194.324 126.635 193.612 127.414 193.047 128.431C192.483 129.447 192.087 130.671 191.862 132.101C191.621 133.441 191.598 134.556 191.794 135.444C191.997 136.333 192.396 136.999 192.991 137.443C193.593 137.887 194.376 138.11 195.34 138.11C196.439 138.11 197.411 137.846 198.254 137.319C199.105 136.792 199.809 136.028 200.366 135.026C200.93 134.025 201.333 132.809 201.574 131.378Z" fill="black"/>
<path d="M184.504 120.13L180.664 143.259H174.385L178.225 120.13H184.504Z" fill="black"/>
<path d="M173.908 128.803H167.628C167.673 128.269 167.643 127.787 167.538 127.358C167.432 126.929 167.252 126.56 166.996 126.251C166.74 125.935 166.405 125.694 165.991 125.528C165.577 125.363 165.083 125.28 164.511 125.28C163.412 125.28 162.429 125.555 161.563 126.104C160.698 126.646 159.979 127.426 159.406 128.442C158.834 129.451 158.428 130.656 158.187 132.056C157.976 133.411 157.968 134.537 158.164 135.433C158.367 136.329 158.763 136.999 159.35 137.443C159.945 137.887 160.716 138.11 161.665 138.11C162.298 138.11 162.877 138.034 163.404 137.884C163.939 137.733 164.413 137.518 164.827 137.24C165.249 136.954 165.607 136.615 165.9 136.223C166.201 135.824 166.431 135.384 166.589 134.902H172.914C172.673 135.881 172.244 136.882 171.626 137.906C171.009 138.923 170.211 139.86 169.232 140.718C168.253 141.569 167.101 142.258 165.776 142.785C164.451 143.312 162.96 143.576 161.304 143.576C159.135 143.576 157.264 143.101 155.691 142.153C154.125 141.204 152.988 139.819 152.28 137.997C151.58 136.175 151.441 133.953 151.862 131.333C152.284 128.803 153.116 126.684 154.358 124.975C155.6 123.266 157.11 121.978 158.887 121.112C160.664 120.247 162.554 119.814 164.556 119.814C166.07 119.814 167.425 120.013 168.622 120.412C169.827 120.811 170.839 121.395 171.66 122.163C172.488 122.923 173.098 123.861 173.49 124.975C173.881 126.089 174.02 127.365 173.908 128.803Z" fill="black"/>
<path d="M148.889 132.101C148.467 134.616 147.632 136.724 146.382 138.426C145.132 140.127 143.615 141.411 141.83 142.277C140.046 143.143 138.137 143.576 136.105 143.576C133.936 143.576 132.054 143.105 130.458 142.164C128.861 141.223 127.698 139.845 126.968 138.03C126.238 136.216 126.091 133.999 126.527 131.378C126.934 128.864 127.762 126.748 129.012 125.031C130.262 123.315 131.787 122.016 133.586 121.135C135.385 120.254 137.309 119.814 139.357 119.814C141.51 119.814 143.381 120.288 144.97 121.237C146.566 122.185 147.726 123.574 148.449 125.404C149.179 127.234 149.326 129.466 148.889 132.101ZM142.565 131.378C142.775 130.053 142.79 128.939 142.61 128.035C142.429 127.124 142.049 126.439 141.469 125.98C140.889 125.513 140.11 125.28 139.131 125.28C138.017 125.28 137.031 125.551 136.172 126.093C135.314 126.635 134.602 127.414 134.038 128.431C133.473 129.447 133.078 130.671 132.852 132.101C132.611 133.441 132.588 134.556 132.784 135.444C132.987 136.333 133.386 136.999 133.981 137.443C134.584 137.887 135.367 138.11 136.33 138.11C137.43 138.11 138.401 137.846 139.244 137.319C140.095 136.792 140.799 136.028 141.356 135.026C141.921 134.025 142.324 132.809 142.565 131.378Z" fill="black"/>
<path d="M110.123 140.052L112.879 123.337H117.939L115.183 140.052H110.123ZM105.244 134.224L106.103 129.165H122.817L121.959 134.224H105.244Z" fill="black"/>
<defs>
<linearGradient id="paint0_linear_66_67024" x1="115.966" y1="0.64209" x2="115.966" y2="199.908" gradientUnits="userSpaceOnUse">
<stop stop-color="#D9D9D9"/>
<stop offset="1" stop-color="#737373"/>
</linearGradient>
</defs>
</svg>
